{
  "accessors": [
    {
      "bufferView": 2,
      "componentType": 5126,
      "count": 504,
      "max": [
        5.284353733062744,
        -0.7451610565185547,
        0.5675657391548157
      ],
      "min": [
        -4.015265941619873,
        -3.4092681407928467,
        -2.166168689727783
      ],
      "type": "VEC3"
    },
    {
      "bufferView": 2,
      "byteOffset": 6048,
      "componentType": 5126,
      "count": 504,
      "max": [
        0.9382334351539612,
        0.97910076379776,
        0.959423303604126
      ],
      "min": [
        -0.985235333442688,
        -0.980475664138794,
        -0.9961420297622681
      ],
      "type": "VEC3"
    },
    {
      "bufferView": 1,
      "componentType": 5126,
      "count": 504,
      "max": [
        1.0,
        0.47238200902938843
      ],
      "min": [
        0.0,
        0.0
      ],
      "type": "VEC2"
    },
    {
      "bufferView": 0,
      "componentType": 5125,
      "count": 504,
      "type": "SCALAR"
    },
    {
      "bufferView": 2,
      "byteOffset": 12096,
      "componentType": 5126,
      "count": 444,
      "max": [
        3.799677848815918,
        -0.002932310104370117,
        0.7642566561698914
      ],
      "min": [
        -4.18731689453125,
        -3.5534019470214844,
        -1.8104238510131836
      ],
      "type": "VEC3"
    },
    {
      "bufferView": 2,
      "byteOffset": 17424,
      "componentType": 5126,
      "count": 444,
      "max": [
        0.938233494758606,
        0.9557380080223083,
        0.959423303604126
      ],
      "min": [
        -0.985235333442688,
        -0.9804757237434387,
        -0.955456554889679
      ],
      "type": "VEC3"
    },
    {
      "bufferView": 1,
      "byteOffset": 4032,
      "componentType": 5126,
      "count": 444,
      "max": [
        1.0,
        0.47238200902938843
      ],
      "min": [
        0.0,
        0.0
      ],
      "type": "VEC2"
    },
    {
      "bufferView": 0,
      "byteOffset": 2016,
      "componentType": 5125,
      "count": 444,
      "type": "SCALAR"
    },
    {
      "bufferView": 2,
      "byteOffset": 22752,
      "componentType": 5126,
      "count": 624,
      "max": [
        6.136308193206787,
        8.586505889892578,
        0.8509435057640076
      ],
      "min": [
        -4.582086563110352,
        -2.6489739418029785,
        -3.0269081592559814
      ],
      "type": "VEC3"
    },
    {
      "bufferView": 2,
      "byteOffset": 30240,
      "componentType": 5126,
      "count": 624,
      "max": [
        0.9940338730812073,
        0.9907507300376892,
        0.9859312176704407
      ],
      "min": [
        -0.9828781485557556,
        -0.9906332492828369,
        -0.9998816847801208
      ],
      "type": "VEC3"
    },
    {
      "bufferView": 1,
      "byteOffset": 7584,
      "componentType": 5126,
      "count": 624,
      "max": [
        0.8726263046264648,
        0.8923729658126831
      ],
      "min": [
        0.11846037209033966,
        0.12886013090610504
      ],
      "type": "VEC2"
    },
    {
      "bufferView": 0,
      "byteOffset": 3792,
      "componentType": 5125,
      "count": 630,
      "type": "SCALAR"
    },
    {
      "bufferView": 2,
      "byteOffset": 37728,
      "componentType": 5126,
      "count": 174,
      "max": [
        6.950327396392822,
        8.99209213256836,
        0.920706570148468
      ],
      "min": [
        -5.699950218200684,
        -3.900531053543091,
        0.5331576466560364
      ],
      "type": "VEC3"
    },
    {
      "bufferView": 2,
      "byteOffset": 39816,
      "componentType": 5126,
      "count": 174,
      "max": [
        0.955816388130188,
        0.9501733183860779,
        1.0
      ],
      "min": [
        -0.9070495367050171,
        -0.8981547951698303,
        -1.0
      ],
      "type": "VEC3"
    },
    {
      "bufferView": 1,
      "byteOffset": 12576,
      "componentType": 5126,
      "count": 174,
      "max": [
        0.890864372253418,
        0.9099724888801575
      ],
      "min": [
        0.09848883748054504,
        0.10241721570491791
      ],
      "type": "VEC2"
    },
    {
      "bufferView": 0,
      "byteOffset": 6312,
      "componentType": 5125,
      "count": 336,
      "type": "SCALAR"
    },
    {
      "bufferView": 2,
      "byteOffset": 41904,
      "componentType": 5126,
      "count": 1456,
      "max": [
        5.901739597320557,
        7.363133907318115,
        1.9849560260772705
      ],
      "min": [
        -3.6540846824645996,
        -2.7041115760803223,
        0.693577229976654
      ],
      "type": "VEC3"
    },
    {
      "bufferView": 2,
      "byteOffset": 59376,
      "componentType": 5126,
      "count": 1456,
      "max": [
        0.9992401003837585,
        0.9873994588851929,
        0.99980628490448
      ],
      "min": [
        -0.9979563355445862,
        -0.9864361882209778,
        -0.9771118760108948
      ],
      "type": "VEC3"
    },
    {
      "bufferView": 1,
      "byteOffset": 13968,
      "componentType": 5126,
      "count": 1456,
      "max": [
        0.8726263046264648,
        0.8923729658126831
      ],
      "min": [
        0.11846037209033966,
        0.12886013090610504
      ],
      "type": "VEC2"
    },
    {
      "bufferView": 0,
      "byteOffset": 7656,
      "componentType": 5125,
      "count": 1470,
      "type": "SCALAR"
    },
    {
      "bufferView": 2,
      "byteOffset": 76848,
      "componentType": 5126,
      "count": 3920,
      "max": [
        10.51723861694336,
        9.978774070739746,
        3.830378770828247
      ],
      "min": [
        -15.160004615783691,
        -9.726627349853516,
        -4.106318950653076
      ],
      "type": "VEC3"
    },
    {
      "bufferView": 2,
      "byteOffset": 123888,
      "componentType": 5126,
      "count": 3920,
      "max": [
        0.9987471103668213,
        0.9998829960823059,
        0.9971793293952942
      ],
      "min": [
        -0.9945573210716248,
        -0.999272346496582,
        -0.9997997283935547
      ],
      "type": "VEC3"
    },
    {
      "bufferView": 1,
      "byteOffset": 25616,
      "componentType": 5126,
      "count": 3920,
      "max": [
        0.0,
        0.0
      ],
      "min": [
        0.0,
        0.0
      ],
      "type": "VEC2"
    },
    {
      "bufferView": 0,
      "byteOffset": 13536,
      "componentType": 5125,
      "count": 5880,
      "type": "SCALAR"
    },
    {
      "bufferView": 2,
      "byteOffset": 170928,
      "componentType": 5126,
      "count": 5105,
      "max": [
        11.21505355834961,
        11.371488571166992,
        1.672379970550537
      ],
      "min": [
        -9.394967079162598,
        -1.9061775207519531,
        -3.267461061477661
      ],
      "type": "VEC3"
    },
    {
      "bufferView": 2,
      "byteOffset": 232188,
      "componentType": 5126,
      "count": 5105,
      "max": [
        0.9999958276748657,
        0.9999958872795105,
        0.9998815059661865
      ],
      "min": [
        -0.9999958276748657,
        -0.9999958872795105,
        -0.9997153878211975
      ],
      "type": "VEC3"
    },
    {
      "bufferView": 1,
      "byteOffset": 56976,
      "componentType": 5126,
      "count": 5105,
      "max": [
        1.0,
        1.0000001192092896
      ],
      "min": [
        0.0,
        0.0
      ],
      "type": "VEC2"
    },
    {
      "bufferView": 0,
      "byteOffset": 37056,
      "componentType": 5125,
      "count": 6513,
      "type": "SCALAR"
    },
    {
      "bufferView": 2,
      "byteOffset": 293448,
      "componentType": 5126,
      "count": 9910,
      "max": [
        10.507895469665527,
        7.808238983154297,
        4.808650970458984
      ],
      "min": [
        -14.585238456726074,
        -11.460115432739258,
        -3.3461861610412598
      ],
      "type": "VEC3"
    },
    {
      "bufferView": 2,
      "byteOffset": 412368,
      "componentType": 5126,
      "count": 9910,
      "max": [
        0.9999939799308777,
        0.9999939203262329,
        0.9999237656593323
      ],
      "min": [
        -0.9999940395355225,
        -0.9999939799308777,
        -0.999966025352478
      ],
      "type": "VEC3"
    },
    {
      "bufferView": 1,
      "byteOffset": 97816,
      "componentType": 5126,
      "count": 9910,
      "max": [
        1.0,
        1.0000001192092896
      ],
      "min": [
        0.0,
        0.0
      ],
      "type": "VEC2"
    },
    {
      "bufferView": 0,
      "byteOffset": 63108,
      "componentType": 5125,
      "count": 11928,
      "type": "SCALAR"
    },
    {
      "bufferView": 2,
      "byteOffset": 531288,
      "componentType": 5126,
      "count": 7662,
      "max": [
        7.689616680145264,
        9.218794822692871,
        3.557616710662842
      ],
      "min": [
        -15.521105766296387,
        -10.906318664550781,
        -3.5770957469940186
      ],
      "type": "VEC3"
    },
    {
      "bufferView": 2,
      "byteOffset": 623232,
      "componentType": 5126,
      "count": 7662,
      "max": [
        0.9999252557754517,
        0.9983639717102051,
        0.9999237060546875
      ],
      "min": [
        -0.9998819828033447,
        -0.9991703033447266,
        -0.9999659657478333
      ],
      "type": "VEC3"
    },
    {
      "bufferView": 1,
      "byteOffset": 177096,
      "componentType": 5126,
      "count": 7662,
      "max": [
        1.0,
        1.0000001192092896
      ],
      "min": [
        0.0,
        0.0
      ],
      "type": "VEC2"
    },
    {
      "bufferView": 0,
      "byteOffset": 110820,
      "componentType": 5125,
      "count": 8940,
      "type": "SCALAR"
    }
  ],
  "asset": {
    "extras": {
      "author": "Carlos_SR (https://sketchfab.com/CarlosSR)",
      "license": "CC-BY-4.0 (http://creativecommons.org/licenses/by/4.0/)",
      "source": "https://sketchfab.com/3d-models/lowpoly-trees-84149cefe9844f318f4ac495be9e9e3a",
      "title": "Lowpoly Trees"
    },
    "generator": "Sketchfab-12.67.0",
    "version": "2.0"
  },
  "bufferViews": [
    {
      "buffer": 0,
      "byteLength": 146580,
      "name": "floatBufferViews",
      "target": 34963
    },
    {
      "buffer": 0,
      "byteLength": 238392,
      "byteOffset": 146580,
      "byteStride": 8,
      "name": "floatBufferViews",
      "target": 34962
    },
    {
      "buffer": 0,
      "byteLength": 715176,
      "byteOffset": 384972,
      "byteStride": 12,
      "name": "floatBufferViews",
      "target": 34962
    }
  ],
  "buffers": [
    {
      "byteLength": 1100148,
      "uri": "scene.bin"
    }
  ],
  "materials": [
    {
      "doubleSided": true,
      "name": "Material.005",
      "pbrMetallicRoughness": {
        "baseColorFactor": [
          0.239553,
          0.168956,
          0.122826,
          1.0
        ],
        "metallicFactor": 0.0,
        "roughnessFactor": 0.9557538046283652
      }
    },
    {
      "doubleSided": true,
      "name": "Material.007",
      "pbrMetallicRoughness": {
        "baseColorFactor": [
          0.239552,
          0.097634,
          0.042472,
          1.0
        ],
        "metallicFactor": 0.0,
        "roughnessFactor": 0.9696696659135281
      }
    },
    {
      "doubleSided": true,
      "name": "Material.003",
      "pbrMetallicRoughness": {
        "baseColorFactor": [
          0.429227,
          0.242284,
          0.121545,
          1.0
        ],
        "metallicFactor": 0.0,
        "roughnessFactor": 0.9330528180070377
      }
    },
    {
      "doubleSided": true,
      "name": "Material.008",
      "pbrMetallicRoughness": {
        "baseColorFactor": [
          0.250002,
          0.410939,
          0.0562341,
          1.0
        ],
        "metallicFactor": 0.0
      }
    },
    {
      "doubleSided": true,
      "name": "Material.004",
      "pbrMetallicRoughness": {
        "baseColorFactor": [
          0.266762,
          0.246804,
          0.210088,
          1.0
        ],
        "metallicFactor": 0.0,
        "roughnessFactor": 0.9391556115721231
      }
    },
    {
      "doubleSided": true,
      "name": "Material.002",
      "pbrMetallicRoughness": {
        "baseColorFactor": [
          0.184469,
          0.0703757,
          0.0302194,
          1.0
        ],
        "metallicFactor": 0.0,
        "roughnessFactor": 0.9775301812983048
      }
    },
    {
      "doubleSided": true,
      "name": "Material.009",
      "pbrMetallicRoughness": {
        "baseColorFactor": [
          0.526145,
          0.615178,
          0.0941693,
          1.0
        ],
        "metallicFactor": 0.0,
        "roughnessFactor": 0.8631634794048333
      }
    },
    {
      "doubleSided": true,
      "name": "Material.001",
      "pbrMetallicRoughness": {
        "baseColorFactor": [
          0.248872,
          0.457532,
          0.0885944,
          1.0
        ],
        "metallicFactor": 0.0,
        "roughnessFactor": 0.9053189937817474
      }
    },
    {
      "doubleSided": true,
      "name": "Material.006",
      "pbrMetallicRoughness": {
        "baseColorFactor": [
          0.118269,
          0.207916,
          0.0619815,
          1.0
        ],
        "metallicFactor": 0.0,
        "roughnessFactor": 0.9563205575956271
      }
    }
  ],
  "meshes": [
    {
      "name": "Icosphere.008_Material.005_0",
      "primitives": [
        {
          "attributes": {
            "NORMAL": 1,
            "POSITION": 0,
            "TEXCOORD_0": 2
          },
          "indices": 3,
          "material": 0,
          "mode": 4
        }
      ]
    },
    {
      "name": "Icosphere.008_Material.007_0",
      "primitives": [
        {
          "attributes": {
            "NORMAL": 5,
            "POSITION": 4,
            "TEXCOORD_0": 6
          },
          "indices": 7,
          "material": 1,
          "mode": 4
        }
      ]
    },
    {
      "name": "Icosphere.008_Material.003_0",
      "primitives": [
        {
          "attributes": {
            "NORMAL": 9,
            "POSITION": 8,
            "TEXCOORD_0": 10
          },
          "indices": 11,
          "material": 2,
          "mode": 4
        }
      ]
    },
    {
      "name": "Icosphere.008_Material.008_0",
      "primitives": [
        {
          "attributes": {
            "NORMAL": 13,
            "POSITION": 12,
            "TEXCOORD_0": 14
          },
          "indices": 15,
          "material": 3,
          "mode": 4
        }
      ]
    },
    {
      "name": "Icosphere.008_Material.004_0",
      "primitives": [
        {
          "attributes": {
            "NORMAL": 17,
            "POSITION": 16,
            "TEXCOORD_0": 18
          },
          "indices": 19,
          "material": 4,
          "mode": 4
        }
      ]
    },
    {
      "name": "Circle.005_Material.002_0",
      "primitives": [
        {
          "attributes": {
            "NORMAL": 21,
            "POSITION": 20,
            "TEXCOORD_0": 22
          },
          "indices": 23,
          "material": 5,
          "mode": 4
        }
      ]
    },
    {
      "name": "Circle.005_Material.009_0",
      "primitives": [
        {
          "attributes": {
            "NORMAL": 25,
            "POSITION": 24,
            "TEXCOORD_0": 26
          },
          "indices": 27,
          "material": 6,
          "mode": 4
        }
      ]
    },
    {
      "name": "Circle.005_Material.001_0",
      "primitives": [
        {
          "attributes": {
            "NORMAL": 29,
            "POSITION": 28,
            "TEXCOORD_0": 30
          },
          "indices": 31,
          "material": 7,
          "mode": 4
        }
      ]
    },
    {
      "name": "Circle.005_Material.006_0",
      "primitives": [
        {
          "attributes": {
            "NORMAL": 33,
            "POSITION": 32,
            "TEXCOORD_0": 34
          },
          "indices": 35,
          "material": 8,
          "mode": 4
        }
      ]
    }
  ],
  "nodes": [
    {
      "children": [
        1
      ],
      "matrix": [
        1.0,
        0.0,
        0.0,
        0.0,
        0.0,
        2.220446049250313e-16,
        -1.0,
        0.0,
        0.0,
        1.0,
        2.220446049250313e-16,
        0.0,
        -128.3526611328125,
        7.416641164786058e-05,
        11.288253784179688,
        1.0
      ],
      "name": "Sketchfab_model"
    },
    {
      "children": [
        2
      ],
      "matrix": [
        1.0,
        0.0,
        0.0,
        0.0,
        0.0,
        0.0,
        1.0,
        0.0,
        0.0,
        -1.0,
        0.0,
        0.0,
        0.0,
        0.0,
        0.0,
        1.0
      ],
      "name": "9fcd538f95d3418fa8ac7ecd7c960db2.fbx"
    },
    {
      "children": [
        3,
        9
      ],
      "name": "RootNode"
    },
    {
      "children": [
        4,
        5,
        6,
        7,
        8
      ],
      "matrix": [
        280.207763671875,
        0.0,
        0.0,
        0.0,
        -0.0,
        -4.565163922828761e-05,
        -280.2077636718713,
        0.0,
        0.0,
        280.2077636718713,
        -4.565163922828761e-05,
        0.0,
        -98.8972396850586,
        -319.54736328125,
        250.31146240234375,
        1.0
      ],
      "name": "Icosphere.008"
    },
    {
      "mesh": 0,
      "name": "Icosphere.008_Material.005_0"
    },
    {
      "mesh": 1,
      "name": "Icosphere.008_Material.007_0"
    },
    {
      "mesh": 2,
      "name": "Icosphere.008_Material.003_0"
    },
    {
      "mesh": 3,
      "name": "Icosphere.008_Material.008_0"
    },
    {
      "mesh": 4,
      "name": "Icosphere.008_Material.004_0"
    },
    {
      "children": [
        10,
        11,
        12,
        13
      ],
      "matrix": [
        -99.76056351827079,
        -1.3905040245859417e-14,
        -75.72487871259187,
        0.0,
        -75.72487871259166,
        9.455769792705498e-06,
        99.7605635182705,
        0.0,
        6.2833157375908515e-06,
        137.6503906249996,
        -8.277690641364955e-06,
        0.0,
        3.1581878662109375,
        455.6573791503906,
        -576.5735473632813,
        1.0
      ],
      "name": "Circle.005"
    },
    {
      "mesh": 5,
      "name": "Circle.005_Material.002_0"
    },
    {
      "mesh": 6,
      "name": "Circle.005_Material.009_0"
    },
    {
      "mesh": 7,
      "name": "Circle.005_Material.001_0"
    },
    {
      "mesh": 8,
      "name": "Circle.005_Material.006_0"
    }
  ],
  "scene": 0,
  "scenes": [
    {
      "name": "Sketchfab_Scene",
      "nodes": [
        0
      ]
    }
  ]
}
